<svg width="266" height="119" viewBox="0 0 266 119" fill="none" xmlns="http://www.w3.org/2000/svg">
<path d="M21.804 82.5462C18.262 82.5462 15.088 81.9712 12.282 80.8212C9.476 79.6712 7.222 77.9692 5.52 75.7152C3.864 73.4612 2.99 70.7472 2.898 67.5732H15.456C15.64 69.3672 16.261 70.7472 17.319 71.7132C18.377 72.6332 19.757 73.0932 21.459 73.0932C23.207 73.0932 24.587 72.7022 25.599 71.9202C26.611 71.0922 27.117 69.9652 27.117 68.5392C27.117 67.3432 26.703 66.3542 25.875 65.5722C25.093 64.7902 24.104 64.1462 22.908 63.6402C21.758 63.1342 20.102 62.5592 17.94 61.9152C14.812 60.9492 12.259 59.9832 10.281 59.0172C8.303 58.0512 6.601 56.6252 5.175 54.7392C3.749 52.8532 3.036 50.3922 3.036 47.3562C3.036 42.8482 4.669 39.3292 7.935 36.7992C11.201 34.2232 15.456 32.9352 20.7 32.9352C26.036 32.9352 30.337 34.2232 33.603 36.7992C36.869 39.3292 38.617 42.8712 38.847 47.4252H26.082C25.99 45.8612 25.415 44.6422 24.357 43.7682C23.299 42.8482 21.942 42.3882 20.286 42.3882C18.86 42.3882 17.71 42.7792 16.836 43.5612C15.962 44.2972 15.525 45.3782 15.525 46.8042C15.525 48.3682 16.261 49.5872 17.733 50.4612C19.205 51.3352 21.505 52.2782 24.633 53.2902C27.761 54.3482 30.291 55.3602 32.223 56.3262C34.201 57.2922 35.903 58.6952 37.329 60.5352C38.755 62.3752 39.468 64.7442 39.468 67.6422C39.468 70.4022 38.755 72.9092 37.329 75.1632C35.949 77.4172 33.925 79.2112 31.257 80.5452C28.589 81.8792 25.438 82.5462 21.804 82.5462ZM70.3962 43.1472C74.8122 43.1472 78.3542 44.6192 81.0222 47.5632C83.6902 50.4612 85.0242 54.4632 85.0242 59.5692V82.0632H73.2942V61.1562C73.2942 58.5802 72.6272 56.5792 71.2932 55.1532C69.9592 53.7272 68.1652 53.0142 65.9112 53.0142C63.6572 53.0142 61.8632 53.7272 60.5292 55.1532C59.1952 56.5792 58.5282 58.5802 58.5282 61.1562V82.0632H46.7292V31.0032H58.5282V48.7362C59.7242 47.0342 61.3572 45.6772 63.4272 44.6652C65.4972 43.6532 67.8202 43.1472 70.3962 43.1472ZM110.749 82.6152C106.977 82.6152 103.573 81.8102 100.537 80.2002C97.5473 78.5902 95.1783 76.2902 93.4303 73.3002C91.7283 70.3102 90.8773 66.8142 90.8773 62.8122C90.8773 58.8562 91.7513 55.3832 93.4993 52.3932C95.2473 49.3572 97.6393 47.0342 100.675 45.4242C103.711 43.8142 107.115 43.0092 110.887 43.0092C114.659 43.0092 118.063 43.8142 121.099 45.4242C124.135 47.0342 126.527 49.3572 128.275 52.3932C130.023 55.3832 130.897 58.8562 130.897 62.8122C130.897 66.7682 130 70.2642 128.206 73.3002C126.458 76.2902 124.043 78.5902 120.961 80.2002C117.925 81.8102 114.521 82.6152 110.749 82.6152ZM110.749 72.4032C113.003 72.4032 114.912 71.5752 116.476 69.9192C118.086 68.2632 118.891 65.8942 118.891 62.8122C118.891 59.7302 118.109 57.3612 116.545 55.7052C115.027 54.0492 113.141 53.2212 110.887 53.2212C108.587 53.2212 106.678 54.0492 105.16 55.7052C103.642 57.3152 102.883 59.6842 102.883 62.8122C102.883 65.8942 103.619 68.2632 105.091 69.9192C106.609 71.5752 108.495 72.4032 110.749 72.4032ZM192.822 49.9782C194.202 47.8622 195.927 46.2062 197.997 45.0102C200.067 43.7682 202.367 43.1472 204.897 43.1472V55.6362H201.654C198.71 55.6362 196.502 56.2802 195.03 57.5682C193.558 58.8102 192.822 61.0182 192.822 64.1922V82.0632H181.023V43.5612H192.822V49.9782ZM222.336 49.9782C223.716 47.8622 225.441 46.2062 227.511 45.0102C229.581 43.7682 231.881 43.1472 234.411 43.1472V55.6362H231.168C228.224 55.6362 226.016 56.2802 224.544 57.5682C223.072 58.8102 222.336 61.0182 222.336 64.1922V82.0632H210.537V43.5612H222.336V49.9782ZM251.849 49.9782C253.229 47.8622 254.954 46.2062 257.024 45.0102C259.094 43.7682 261.394 43.1472 263.924 43.1472V55.6362H260.681C257.737 55.6362 255.529 56.2802 254.057 57.5682C252.585 58.8102 251.849 61.0182 251.849 64.1922V82.0632H240.05V43.5612H251.849V49.9782Z" fill="black"/>
<path d="M149.403 48.4223C151.634 46.5382 154.331 45.3678 157.494 44.9111C160.72 44.4305 164.037 44.9671 167.443 46.5208C170.675 47.9947 173.23 50.0836 175.11 52.7873C177.053 55.4673 178.108 58.5334 178.274 61.9857C178.504 65.4143 177.782 68.9628 176.109 72.6313C174.436 76.2997 172.22 79.1928 169.46 81.3106C166.744 83.4483 163.727 84.6839 160.41 85.0173C157.136 85.3706 153.883 84.8103 150.652 83.3363C147.289 81.8026 144.721 79.682 142.949 76.9744C141.197 74.2232 140.301 71.3876 140.261 68.4678L128.967 93.2299L124.447 91.1683L148.469 38.4998L152.989 40.5613L149.403 48.4223ZM171.458 70.5099C172.813 67.5402 173.388 64.7165 173.185 62.0388C173.046 59.3373 172.23 56.9607 170.739 54.909C169.248 52.8572 167.236 51.2537 164.703 50.0985C162.258 48.983 159.74 48.5468 157.149 48.7898C154.603 49.0527 152.242 50.007 150.067 51.6528C147.892 53.2986 146.147 55.5627 144.832 58.4451C143.517 61.3274 142.952 64.1293 143.135 66.8507C143.318 69.5721 144.145 71.9805 145.616 74.0759C147.131 76.1912 149.111 77.8066 151.557 78.922C154.09 80.0773 156.62 80.5453 159.147 80.3261C161.693 80.0632 164.033 79.0989 166.164 77.4332C168.359 75.7437 170.124 73.436 171.458 70.5099Z" fill="#00AFAF"/>
</svg>
